<svg version="1" xmlns="http://www.w3.org/2000/svg" width="666.667" height="666.667" viewBox="0 0 500.000000 500.000000"><path d="M243.5 11.7c-3.3 5.8-6.7 11.8-7.5 13.2-2.5 4.3-7.7 13.3-9.8 17.1-1 1.9-11.2 19.6-22.6 39.4-11.4 19.7-20.4 36.1-20.2 36.4.5.4 18.7.6 27.2.3 1.5-.1 3.6-2.8 8-10.3 3.2-5.6 6.2-10.9 6.7-11.8.4-.8 4.3-7.6 8.7-15 4.5-7.4 9.7-16.5 11.8-20.2 2-3.7 4-6.8 4.4-6.8.3 0 2.3 3 4.4 6.7 2 3.8 5.6 9.9 7.9 13.8 2.3 3.8 8.8 15.1 14.5 25 5.7 9.9 10.5 18.2 10.6 18.4.4.5 29.4.5 29.9 0 .2-.2-2.1-4.7-5.2-9.9-3-5.2-6.7-11.8-8.3-14.5-1.5-2.8-10.3-18.1-19.5-34-9.2-16-18-31.3-19.5-34-8.7-15.4-13.9-24-14.6-24.2-.5-.1-3.6 4.5-6.9 10.4zM91.9 140.4c0 .6-.1 11.6-.1 24.4-.1 15.5.2 23.6.9 24 .9.6 13.1.7 24.1.3 2.1-.1 2.2-.4 2.2-11.6 0-8.5.3-11.5 1.3-11.6 1.8-.1 113.9-.1 115.7 0 1.3.1 1.5 18.4 1.4 158.9 0 141.2.1 159 1.5 161.4.8 1.6 1.8 2.8 2.1 2.8.3 0 2.3 2.2 4.4 5 2.1 2.7 4.3 5 5 5 .6-.1 3.7-3.3 6.9-7.3l5.7-7.2V166l3.3-.1c1.7 0 28.4-.1 59.2-.1l56-.1.1 9.4c.1 5.2.2 10.5.3 11.9l.1 2.5 11.3-.2c6.1 0 12.2-.2 13.5-.2l2.2-.1v-49.7H250.5c-115.9 0-158.5.3-158.6 1.1z"/><path d="M134.7 201.2c-10.2 17.7-44.5 77.3-46.8 81.5-1.2 2.1-7.3 12.7-13.5 23.5-6.3 10.9-16.6 28.9-23 40-6.4 11.2-12.5 21.8-13.6 23.5l-2 3.3h126v-13l-.1-13h-39.8c-22 0-39.9-.2-39.9-.5 0-.5 3.9-7.7 8.8-16 1.9-3.3 4.2-7.4 5.2-9 3.1-5.4 37-64.4 52.3-91 8.2-14.3 16.1-28 17.5-30.5 1.4-2.5 3.1-5.4 3.8-6.5.8-1.1 1.4-2.3 1.4-2.7 0-.5-6.7-.8-14.9-.8h-14.9l-6.5 11.2zM186.9 193.2v221.9c.1 3 1.9 5.7 12.2 18.5 6.7 8.2 12.5 15.3 13 15.8.5.6.9-54.7.9-129.2V190h-26l-.1 3.2zM288.2 320.1c0 71.5.4 129.7.8 129.2.5-.4 6.4-7.6 13.2-16l12.3-15.1V304.3l-.1-113.8-13.1-.3-13.1-.3v130.2zM331.7 194.7c1.4 2.7 8.7 15.4 16.1 28.3 21 36.6 23.2 40.4 24.2 42 .5.8 2.7 4.6 4.9 8.5 2.1 3.8 12.5 21.8 23 40l19 33-39.9.3c-37.2.2-40 .3-40.1 2-.1.9-.2 6.6-.2 12.7l-.1 11 62.7.3c34.5.1 62.7 0 62.7-.2s-3.2-5.9-7.1-12.7c-3.9-6.8-18.6-32.4-32.6-56.9-14.1-24.5-25.9-45-26.3-45.5-.4-.6-2.1-3.5-3.7-6.5-1.7-3-4.6-8.2-6.6-11.5-1.9-3.3-4.8-8.3-6.3-11-1.6-2.8-7.2-12.6-12.4-21.8l-9.5-16.7H329l2.7 4.7z"/></svg>
