<?xml version="1.0" encoding="UTF-8"?>
<!DOCTYPE svg PUBLIC "-//W3C//DTD SVG 1.1//EN" "http://www.w3.org/Graphics/SVG/1.1/DTD/svg11.dtd">
<svg xmlns="http://www.w3.org/2000/svg" xmlns:xlink="http://www.w3.org/1999/xlink">
	<defs>
		<path id="kz-flag-a" d="M19.919 0l19.918 19.919-19.918 19.918L0 19.919z"/>
	</defs>
<symbol id="arrow-left" viewBox="0 0 19 12">
	<path fill-rule="evenodd" d="M7 7v5L0 6l7-6v5h12v2z"/>
</symbol>
<symbol id="arrow-right" viewBox="0 0 19 12">
	<path d="M0 7V5h12V0l7 6-7 6V7z"/>
</symbol>
<symbol id="book" viewBox="0 0 24 24">
	<path d="M21.655 8.031l-1.647-.697V6.272a.55.55 0 0 0-.344-.501C18.479 5.266 17.112 5 15.71 5c-1.306 0-2.583.232-3.711.672C10.872 5.232 9.596 5 8.29 5c-1.402 0-2.769.266-3.954.77a.55.55 0 0 0-.344.502v1.062l-1.647.697A.55.55 0 0 0 2 8.533v9.55c0 .312.167.6.447.77.276.167.624.196.931.065l2.22-.94c.787-.333 1.712-.51 2.675-.51 1.948 0 2.974.68 3.486.853a.62.62 0 0 0 .482 0c.51-.172 1.54-.852 3.486-.852.963 0 1.888.176 2.675.51l2.22.94c.303.128.651.104.931-.066a.901.901 0 0 0 .447-.77v-9.55a.55.55 0 0 0-.345-.502zm-9.069-1.394c1.937-.715 4.313-.715 6.25 0V15a10.486 10.486 0 0 0-3.125-.466c-1.085 0-2.15.16-3.125.467V6.637zm-7.422 0c1.937-.715 4.313-.715 6.25 0v8.365a10.485 10.485 0 0 0-3.125-.467c-1.085 0-2.15.16-3.125.466V6.636zm15.664 11.162l-1.944-.824c-.937-.397-2.03-.607-3.157-.607-2.162 0-3.397.74-3.727.848-.315-.103-1.56-.848-3.727-.848-1.128 0-2.22.21-3.157.607l-1.944.824v-8.91l.82-.348v7.266c0 .398.44.666.828.5 2.107-.896 4.83-.896 6.938 0a.626.626 0 0 0 .484 0c2.107-.896 4.83-.896 6.938 0 .386.165.828-.1.828-.5V8.54l.82.347v8.91z"/>
</symbol>
<symbol id="circle" viewBox="-2 -2 105 104">
	<circle cx="52" cy="52" r="50" class="background" transform="rotate(-90 50 52)"/>
	<circle cx="52" cy="52" r="50" class="outer" transform="rotate(-90 50 52)"/>
</symbol>
<symbol id="cross" viewBox="0 0 14 14">
	<path d="M5.6 7L0 1.4 1.4 0 7 5.6 12.6 0 14 1.4 8.4 7l5.6 5.6-1.4 1.4L7 8.4 1.4 14 0 12.6z"/>
</symbol>
<symbol id="email" viewBox="0 0 24 24">
	<path d="M11.94 2C6.459 2 2 6.459 2 11.94 2 17.44 6.45 22 11.94 22c2.221 0 4.468-.747 6.165-2.048a.904.904 0 1 0-1.1-1.434c-1.388 1.064-3.234 1.687-5.065 1.687-4.485 0-8.133-3.715-8.133-8.265 0-4.485 3.648-8.145 8.133-8.145 4.55 0 8.253 3.66 8.253 8.145v.903a1.81 1.81 0 0 1-1.807 1.808 1.81 1.81 0 0 1-1.808-1.808V8.325a.904.904 0 0 0-1.807 0v.058a4.656 4.656 0 0 0-2.831-.961 4.523 4.523 0 0 0-4.518 4.518 4.523 4.523 0 0 0 4.518 4.518c1.35 0 2.594-.58 3.478-1.555A3.612 3.612 0 0 0 22 12.843v-.903C22 6.443 17.434 2 11.94 2zm0 12.663a2.724 2.724 0 0 1-2.711-2.723 2.724 2.724 0 0 1 2.71-2.723c1.536 0 2.832 1.253 2.832 2.723s-1.296 2.723-2.831 2.723z"/>
</symbol>
<symbol id="fb" viewBox="0 0 24 24">
	<path d="M17.586 2.004L14.947 2c-2.964 0-4.88 1.932-4.88 4.922v2.27H7.416A.411.411 0 0 0 7 9.598v3.289c0 .225.186.407.415.407h2.653v8.297a.41.41 0 0 0 .415.408h3.46c.23 0 .416-.183.416-.408v-8.297h3.101a.41.41 0 0 0 .415-.407l.001-3.289a.405.405 0 0 0-.121-.288.419.419 0 0 0-.294-.12H14.36V7.268c0-.925.224-1.394 1.449-1.394l1.777-.001A.411.411 0 0 0 18 5.465V2.412a.411.411 0 0 0-.414-.408z"/>
</symbol>
<symbol id="file" viewBox="0 0 24 24">
	<path fill-rule="evenodd" d="M18.346 8.509h-6.275v-.94c0-.314-.293-.569-.656-.569H6.654C6.294 7 6 7.255 6 7.57v8.86c0 .315.293.57.654.57h11.692c.36 0 .654-.255.654-.57V9.08c0-.316-.293-.571-.654-.571"/>
</symbol>
<symbol id="inst" viewBox="0 0 24 24">
	<path d="M16.48 2H7.52A5.526 5.526 0 0 0 2 7.52v8.96A5.525 5.525 0 0 0 7.52 22h8.96A5.526 5.526 0 0 0 22 16.48V7.52A5.526 5.526 0 0 0 16.48 2zm3.746 14.48a3.75 3.75 0 0 1-3.745 3.746H7.519a3.749 3.749 0 0 1-3.745-3.745V7.519A3.749 3.749 0 0 1 7.52 3.774h8.962a3.75 3.75 0 0 1 3.745 3.745v8.962zM12 6.907A5.1 5.1 0 0 0 6.906 12 5.1 5.1 0 0 0 12 17.094 5.1 5.1 0 0 0 17.094 12 5.1 5.1 0 0 0 12 6.906zm0 8.434A3.344 3.344 0 0 1 8.66 12 3.344 3.344 0 0 1 12 8.66 3.344 3.344 0 0 1 15.34 12 3.344 3.344 0 0 1 12 15.34zm5.283-9.944a1.322 1.322 0 0 1 .934 2.255 1.334 1.334 0 0 1-.934.387 1.33 1.33 0 0 1-.933-.387 1.332 1.332 0 0 1-.388-.934 1.326 1.326 0 0 1 1.32-1.32z"/>
</symbol>
<symbol id="kz-flag" viewBox="0 0 40 40">

	<g fill="none" fill-rule="evenodd">
		<mask id="kz-flag-b" fill="#fff">
			<use xlink:href="#kz-flag-a"/>
		</mask>
		<use fill="#00AFCA" fill-rule="nonzero" xlink:href="#kz-flag-a"/>
		<path fill="#FEC50C" fill-rule="nonzero" d="M12.07 42.097c-.601 1.527-2.11 2.398-3.502 2.585 1.392.187 2.901 1.058 3.502 2.586.602-1.528 2.11-2.399 3.503-2.586-1.392-.187-2.901-1.058-3.503-2.585zm0-12.003v-.005c.54.332 1.361 1.454 1.361 2.466 0 .748-.44 1.136-.852 1.31 1.7-.171 2.435.501 2.793 1.745-.95-.322-2.443-.352-2.394.727 0 0 .068 2.873.09 3.6.386-.545 1.047-.69 1.887-.69 1.152 0 1.026-.779.835-1.455.605.216 1.222.606.997 1.527.515.01.85.272 1.125.619-.35.393-.727.582-1.125.636.112.594-.296 1.158-.997 1.473.224-.604.293-1.564-.835-1.564-.472 0-.798.363-.798.964 0 .95 1.016 1.71 2.013 1.71.835 0 2.304-.56 2.304-2.165a4.16 4.16 0 0 0-.417-1.782 3565.807 3565.807 0 0 0-5.986-12.692v-.001h-.001A3565.803 3565.803 0 0 0 6.084 39.21a4.16 4.16 0 0 0-.417 1.782c0 1.604 1.469 2.164 2.303 2.164.998 0 2.014-.76 2.014-1.709 0-.601-.327-.964-.798-.964-1.128 0-1.06.96-.835 1.564-.702-.315-1.11-.879-.997-1.473-.398-.054-.776-.243-1.125-.636.275-.347.61-.61 1.125-.619-.225-.921.392-1.31.997-1.527-.191.676-.317 1.455.835 1.455.84 0 1.5.145 1.886.69.023-.727.091-3.6.091-3.6.048-1.08-1.445-1.049-2.394-.727.358-1.244 1.093-1.916 2.793-1.746-.413-.173-.852-.56-.852-1.309 0-1.012.821-2.134 1.36-2.466v.005zm0-7.431c.26-.49 1.138-1.455 2.395-1.6.036-.015.073-.028.11-.041a3.014 3.014 0 0 1-.11-.041c-1.257-.146-2.135-1.11-2.394-1.6-.26.49-1.138 1.454-2.396 1.6a3.014 3.014 0 0 1-.11.04l.11.041c1.258.146 2.136 1.111 2.395 1.6zm6.928-1.641h.001c-.226.41-.619.713-1.232.877v-.036c.928.668 1.397 1.653 1.397 2.564 0 2.178-.871 2.704-.871 5.837 0 .967.376 1.938 1.143 2.837-2.096-.43-2.92-2.245-2.25-3.564-.427-.178-.737.103-1.07.254-.013-.728.28-1.047.49-1.418 0 0-.363.018-.69.145.044-.468.262-.886.69-1.09-1.799.29-2.758-.874-2.758-2.256 0-1.392 1.235-1.756 2.041-1.527a1.02 1.02 0 0 0-.072-.627c.511.12.748.406.571.99.3.052.532.204.735.4a1.36 1.36 0 0 1-.735.437c.176.48-.132.863-.508.946 0 0 .212-1.019-.544-1.019-.3 0-.508.187-.508.619 0 .619.351.982 1.233.982.717 0 1.415-.6 1.415-1.946 0-1.108-1.106-2.08-2.122-2.055-1.114.028-2.177.923-2.177 2.019 0 .709.067 1.193.272 1.618 1.65 3.408 5.887 12.22 5.887 12.22.526 1.09.734 1.806.734 2.945 0 1.825-1.126 3.26-3.256 3.508 2.13.25 3.256 1.683 3.256 3.508 0 1.14-.208 1.855-.734 2.946 0 0-4.237 8.811-5.887 12.22-.205.425-.272.909-.272 1.618 0 1.096 1.063 1.991 2.177 2.018 1.016.026 2.122-.947 2.122-2.054 0-1.346-.698-1.946-1.415-1.946-.882 0-1.233.363-1.233.982 0 .431.208.618.508.618.756 0 .544-1.018.544-1.018.376.082.684.466.508.945.275.062.532.206.735.437-.203.196-.436.348-.735.4.177.585-.06.87-.571.99a1.02 1.02 0 0 0 .072-.626c-.806.229-2.04-.136-2.04-1.528 0-1.382.958-2.546 2.757-2.255-.428-.204-.646-.623-.69-1.09.327.126.69.145.69.145-.21-.371-.503-.69-.49-1.419.333.152.643.433 1.07.255-.67-1.32.154-3.135 2.25-3.564-.767.899-1.143 1.87-1.143 2.837 0 3.132.87 3.659.87 5.837 0 .91-.468 1.895-1.396 2.564v-.037c.613.165 1.006.467 1.232.877-.424.57-.7.738-1.414.784.795.413 1.605 1.309 1.605 2.704 0 2.152-.886 3.039-.886 5.465 0 1.345 1.104 3.058 1.104 3.058-1.95-.195-2.917-2-2.367-3.444a.952.952 0 0 0-.835.254c-.142-.4.083-.864.385-1.264-.243-.13-.422-.052-.81.028.038-.412.285-.85.889-1.262-1.754.455-2.832-.767-2.832-2.047 0-.966.677-1.659 1.339-1.659.214 0 .528.089.705.22.125-.265.06-.621-.068-.887.485.128.793.416.574 1.016.372.034.669.16.87.4a1.038 1.038 0 0 1-.87.4c.271.56-.031.874-.472 1.128 0 0 .28-1.128-.435-1.128-.322 0-.615.105-.615.58 0 .412.36.984 1.195.948.835-.037 1.511-.576 1.511-1.908 0-1.229-.99-1.84-2.297-1.88-1.178-.036-2.067.602-2.067 1.817 0 1.617 2.335 5.303 2.335 6.744 0 1.081-.973 1.685-1.924 1.685-.592 0-1.14-.281-1.549-.574-.409.293-.956.574-1.548.574-.952 0-1.924-.604-1.924-1.685 0-1.44 2.334-5.127 2.334-6.744 0-1.215-.888-1.853-2.066-1.816-1.306.04-2.297.65-2.297 1.88 0 1.331.676 1.87 1.51 1.907.835.036 1.196-.536 1.196-.949 0-.474-.293-.579-.615-.579-.716 0-.435 1.128-.435 1.128-.441-.254-.743-.568-.472-1.128a1.038 1.038 0 0 1-.87-.4c.2-.24.497-.366.87-.4-.22-.6.089-.888.574-1.016-.129.266-.193.622-.068.888.177-.132.491-.22.705-.22.662 0 1.34.692 1.34 1.658 0 1.28-1.08 2.502-2.833 2.047.604.412.851.85.888 1.262-.387-.08-.566-.158-.809-.028.302.4.527.864.385 1.264a.952.952 0 0 0-.835-.254c.55 1.443-.417 3.249-2.367 3.444 0 0 1.104-1.713 1.104-3.058 0-2.426-.886-3.313-.886-5.465 0-1.395.81-2.291 1.605-2.704-.714-.046-.99-.214-1.414-.783.225-.411.618-.713 1.232-.878v.037c-.928-.669-1.397-1.653-1.397-2.564 0-2.178.871-2.705.871-5.837 0-.967-.376-1.938-1.143-2.837 2.096.43 2.92 2.244 2.25 3.564.427.178.736-.103 1.07-.255.012.728-.28 1.048-.49 1.419 0 0 .363-.019.69-.146-.045.468-.262.887-.69 1.091 1.798-.29 2.757.873 2.757 2.255 0 1.392-1.234 1.757-2.04 1.528a1.02 1.02 0 0 0 .072.627c-.512-.12-.748-.406-.571-.991-.3-.052-.532-.204-.735-.4.203-.231.46-.375.735-.437-.177-.479.132-.863.508-.945 0 0-.213 1.018.544 1.018.3 0 .508-.187.508-.618 0-.62-.352-.982-1.234-.982-.716 0-1.415.6-1.415 1.946 0 1.107 1.107 2.08 2.123 2.054 1.114-.027 2.177-.922 2.177-2.018 0-.71-.067-1.193-.272-1.618-1.65-3.409-5.887-12.22-5.887-12.22-.526-1.091-.735-1.806-.735-2.946 0-1.825 1.127-3.259 3.257-3.508C5.197 44.433 4.07 43 4.07 41.174c0-1.14.21-1.854.735-2.945 0 0 4.237-8.812 5.887-12.22.205-.425.272-.91.272-1.618 0-1.096-1.063-1.991-2.177-2.019-1.016-.025-2.123.947-2.123 2.055 0 1.346.699 1.946 1.415 1.946.882 0 1.234-.363 1.234-.982 0-.432-.209-.619-.508-.619-.757 0-.544 1.019-.544 1.019-.376-.083-.685-.467-.508-.946a1.364 1.364 0 0 1-.735-.436c.203-.197.436-.349.735-.4-.177-.585.06-.871.571-.991a1.02 1.02 0 0 0-.072.627c.806-.23 2.04.135 2.04 1.527 0 1.382-.959 2.546-2.757 2.255.428.205.645.623.69 1.091a2.518 2.518 0 0 0-.69-.145c.21.37.502.69.49 1.418-.334-.151-.643-.432-1.07-.254.67 1.32-.154 3.134-2.25 3.564.767-.9 1.143-1.87 1.143-2.837 0-3.133-.87-3.66-.87-5.837 0-.911.468-1.896 1.396-2.564v.036c-.614-.164-1.007-.466-1.233-.877.226-.411.62-.713 1.233-.878v.037c-.928-.67-1.397-1.653-1.397-2.564 0-2.178.871-2.705.871-5.838 0-.966-.376-1.937-1.143-2.836 2.096.43 2.92 2.244 2.25 3.564.427.177.736-.103 1.07-.255.012.728-.28 1.048-.49 1.419 0 0 .363-.019.69-.146-.045.468-.262.887-.69 1.091 1.798-.29 2.757.873 2.757 2.255 0 1.392-1.234 1.757-2.04 1.527a1.02 1.02 0 0 0 .072.628c-.512-.12-.748-.406-.571-.991-.3-.052-.532-.204-.735-.4.203-.231.46-.376.735-.437-.177-.48.132-.863.508-.945 0 0-.213 1.018.544 1.018.3 0 .508-.187.508-.618 0-.62-.352-.982-1.234-.982-.716 0-1.415.6-1.415 1.945 0 1.108 1.107 2.08 2.123 2.055 1.114-.027 2.177-.923 2.177-2.018 0-.71-.067-1.193-.272-1.618-1.65-3.409-5.887-12.22-5.887-12.22C4.279 2.724 4.07 2.009 4.07.869c0-1.825 1.127-3.259 3.257-3.508-2.13-.249-3.257-1.683-3.257-3.508 0-1.14.21-1.854.735-2.945 0 0 4.237-8.812 5.887-12.22.205-.425.272-.91.272-1.619 0-1.095-1.063-1.99-2.177-2.018-1.016-.025-2.123.947-2.123 2.055 0 1.346.699 1.945 1.415 1.945.882 0 1.234-.362 1.234-.981 0-.432-.209-.619-.508-.619-.757 0-.544 1.019-.544 1.019-.376-.083-.685-.467-.508-.946a1.364 1.364 0 0 1-.735-.436c.203-.197.436-.349.735-.4-.177-.585.06-.871.571-.992a1.02 1.02 0 0 0-.072.628c.806-.23 2.04.135 2.04 1.527 0 1.382-.959 2.546-2.757 2.255.428.205.645.623.69 1.091-.327-.127-.69-.145-.69-.145.21.37.502.69.49 1.418-.334-.152-.643-.432-1.07-.255.67 1.32-.154 3.135-2.25 3.565.767-.9 1.143-1.87 1.143-2.837 0-3.133-.87-3.66-.87-5.837 0-.912.468-1.896 1.396-2.564v.036c-.614-.164-1.007-.466-1.233-.877h.002c.423-.57.699-.738 1.413-.784-.795-.412-1.605-1.309-1.605-2.704 0-2.152.886-3.038.886-5.464 0-1.346-1.104-3.059-1.104-3.059 1.95.195 2.917 2.001 2.367 3.445a.952.952 0 0 0 .835-.255c.142.4-.083.864-.385 1.264.243.13.422.052.809-.027-.037.412-.284.85-.888 1.262 1.753-.455 2.832.767 2.832 2.046 0 .966-.677 1.659-1.339 1.659-.214 0-.528-.088-.705-.22-.125.266-.06.621.068.887-.485-.128-.793-.416-.574-1.016-.373-.034-.67-.16-.87-.4a1.04 1.04 0 0 1 .87-.4c-.271-.56.031-.873.472-1.127 0 0-.28 1.127.435 1.127.322 0 .615-.105.615-.579 0-.413-.361-.985-1.195-.948-.835.036-1.511.575-1.511 1.907 0 1.229.99 1.84 2.297 1.88 1.178.036 2.066-.602 2.066-1.817 0-1.617-2.334-5.303-2.334-6.744 0-1.081.972-1.685 1.924-1.685.592 0 1.139.282 1.548.574.41-.292.957-.574 1.55-.574.95 0 1.923.604 1.923 1.685 0 1.441-2.335 5.127-2.335 6.744 0 1.215.89 1.853 2.067 1.817 1.306-.04 2.297-.651 2.297-1.88 0-1.332-.676-1.87-1.51-1.907-.835-.037-1.196.535-1.196.948 0 .474.293.58.615.58.715 0 .435-1.128.435-1.128.44.254.743.567.472 1.127a1.04 1.04 0 0 1 .87.4c-.201.24-.498.366-.87.4.22.6-.089.888-.574 1.016.129-.266.193-.621.068-.887-.177.132-.491.22-.705.22-.662 0-1.34-.693-1.34-1.66 0-1.278 1.08-2.5 2.833-2.045-.604-.412-.851-.85-.888-1.262.387.08.566.157.809.027-.302-.4-.527-.864-.385-1.264.242.23.524.3.835.255-.55-1.444.416-3.25 2.367-3.445 0 0-1.104 1.713-1.104 3.059 0 2.426.886 3.312.886 5.464 0 1.395-.81 2.292-1.605 2.704.714.046.99.214 1.414.784-.226.41-.619.713-1.232.877v-.036c.928.668 1.397 1.652 1.397 2.564 0 2.178-.871 2.704-.871 5.837 0 .966.376 1.937 1.143 2.837-2.096-.43-2.92-2.245-2.25-3.565-.427-.177-.737.103-1.07.255-.013-.728.28-1.048.49-1.418 0 0-.363.018-.69.145.044-.468.262-.886.69-1.09-1.799.29-2.758-.874-2.758-2.256 0-1.392 1.235-1.756 2.041-1.527a1.02 1.02 0 0 0-.072-.628c.511.12.748.407.571.992.3.051.532.203.735.4a1.37 1.37 0 0 1-.735.436c.176.48-.132.863-.508.946 0 0 .212-1.019-.544-1.019-.3 0-.508.187-.508.619 0 .619.351.981 1.233.981.717 0 1.415-.6 1.415-1.945 0-1.108-1.106-2.08-2.122-2.055-1.114.027-2.177.923-2.177 2.018 0 .71.067 1.194.272 1.619 1.65 3.408 5.887 12.22 5.887 12.22.526 1.09.734 1.806.734 2.945 0 1.825-1.126 3.26-3.256 3.508 2.13.25 3.256 1.683 3.256 3.508 0 1.14-.208 1.855-.734 2.946 0 0-4.237 8.811-5.887 12.22-.205.425-.272.908-.272 1.618 0 1.095 1.063 1.99 2.177 2.018 1.016.026 2.122-.947 2.122-2.055 0-1.345-.698-1.945-1.415-1.945-.882 0-1.233.362-1.233.982 0 .431.208.618.508.618.756 0 .544-1.018.544-1.018.376.082.684.466.508.945.275.061.532.206.735.437-.203.196-.436.348-.735.4.177.585-.06.87-.571.99a1.02 1.02 0 0 0 .072-.627c-.806.23-2.04-.135-2.04-1.527 0-1.382.958-2.546 2.757-2.255-.428-.204-.646-.623-.69-1.09.327.126.69.145.69.145-.21-.371-.503-.69-.49-1.419.333.152.643.432 1.07.255-.67-1.32.154-3.135 2.25-3.564-.767.899-1.143 1.87-1.143 2.836 0 3.133.87 3.66.87 5.838 0 .91-.468 1.895-1.396 2.564v-.037c.613.165 1.006.467 1.232.877h-.001zm-6.928 45.68c-.259.49-1.137 1.454-2.395 1.6a3.215 3.215 0 0 1-.217.076c1.134.26 2.088.687 2.612 1.57.525-.883 1.479-1.31 2.612-1.57a3.215 3.215 0 0 1-.217-.076c-1.257-.146-2.135-1.11-2.394-1.6zm0-3.854v-.001c.834-1.745 4.762-10.074 5.987-12.693a4.16 4.16 0 0 0 .417-1.782c0-1.604-1.47-2.164-2.304-2.164-.997 0-2.013.76-2.013 1.71 0 .6.326.963.798.963 1.128 0 1.06-.96.835-1.564.701.316 1.11.88.997 1.473.398.055.776.243 1.125.637-.275.347-.61.609-1.125.618.225.922-.392 1.311-.997 1.527.191-.676.317-1.454-.835-1.454-.84 0-1.501-.146-1.887-.691-.022.727-.09 3.6-.09 3.6-.049 1.08 1.445 1.049 2.394.728-.358 1.243-1.093 1.916-2.793 1.745.412.173.852.561.852 1.31 0 1.012-.821 2.133-1.36 2.465v-.004.004c-.54-.332-1.361-1.453-1.361-2.466 0-.748.44-1.136.852-1.309-1.7.17-2.435-.502-2.793-1.745.949.321 2.442.352 2.394-.728 0 0-.068-2.873-.09-3.6-.386.545-1.047.69-1.887.69-1.152 0-1.026.779-.835 1.455-.605-.216-1.222-.605-.997-1.527-.515-.01-.85-.271-1.125-.618.349-.394.727-.582 1.125-.637-.113-.594.295-1.157.997-1.473-.225.605-.293 1.564.835 1.564.471 0 .798-.362.798-.964 0-.949-1.016-1.709-2.014-1.709-.834 0-2.303.56-2.303 2.164 0 .638.157 1.227.417 1.782a3565.795 3565.795 0 0 0 5.986 12.693zm0 10.505c-.77 1.9-2.24 4.496-1.716 5.147.425.528 1.66-.49 1.715-.535v-.001h.001l.002.001c.055.045 1.29 1.063 1.715.535.525-.651-.947-3.246-1.717-5.147zm0-73.406c.602-1.528 2.11-2.399 3.503-2.586-1.392-.187-2.901-1.058-3.503-2.585-.601 1.527-2.11 2.398-3.502 2.585C9.96-2.452 11.47-1.58 12.07-.053zm0 12.003v.004c-.539-.332-1.36-1.453-1.36-2.466 0-.748.44-1.136.852-1.309-1.7.17-2.435-.502-2.793-1.746.949.322 2.442.353 2.394-.727 0 0-.068-2.873-.09-3.6-.386.545-1.047.69-1.887.69-1.152 0-1.026.779-.835 1.455-.605-.216-1.222-.606-.997-1.527-.515-.01-.85-.272-1.125-.618.349-.394.727-.582 1.125-.637C7.24.875 7.649.312 8.35-.004c-.225.605-.293 1.564.835 1.564.471 0 .798-.362.798-.964 0-.949-1.016-1.709-2.014-1.709-.834 0-2.303.56-2.303 2.164 0 .638.157 1.227.417 1.782a3565.798 3565.798 0 0 0 5.986 12.693c.834-1.745 4.762-10.074 5.987-12.693a4.16 4.16 0 0 0 .417-1.782c0-1.604-1.47-2.164-2.304-2.164-.997 0-2.013.76-2.013 1.71 0 .6.326.963.798.963 1.128 0 1.06-.96.835-1.564.701.316 1.11.88.997 1.473.398.055.776.243 1.125.637-.275.346-.61.609-1.125.618.225.921-.392 1.311-.997 1.527.191-.676.317-1.454-.835-1.454-.84 0-1.501-.146-1.887-.691-.022.727-.09 3.6-.09 3.6-.049 1.08 1.445 1.049 2.394.727-.358 1.244-1.093 1.917-2.793 1.746.412.173.852.561.852 1.31 0 1.012-.821 2.133-1.36 2.465v-.004zm0-29.177v-.005c.54.332 1.361 1.454 1.361 2.466 0 .748-.44 1.136-.852 1.31 1.7-.171 2.435.501 2.793 1.745-.95-.322-2.443-.352-2.394.727 0 0 .068 2.873.09 3.6.386-.545 1.047-.69 1.887-.69 1.152 0 1.026-.779.835-1.455.605.216 1.222.606.997 1.527.515.01.85.272 1.125.619-.35.393-.727.582-1.125.636.112.594-.296 1.157-.997 1.473.224-.604.293-1.564-.835-1.564-.472 0-.798.362-.798.964 0 .95 1.016 1.71 2.013 1.71.835 0 2.304-.56 2.304-2.165a4.16 4.16 0 0 0-.417-1.782 3565.807 3565.807 0 0 0-5.986-12.692v-.002l-.001.002A3565.802 3565.802 0 0 0 6.084-8.111a4.16 4.16 0 0 0-.417 1.782c0 1.604 1.469 2.164 2.303 2.164.998 0 2.014-.76 2.014-1.71 0-.6-.327-.963-.798-.963-1.128 0-1.06.96-.835 1.564-.702-.316-1.11-.879-.997-1.473-.398-.054-.776-.243-1.125-.636.275-.347.61-.61 1.125-.619-.225-.921.392-1.31.997-1.527-.191.676-.317 1.455.835 1.455.84 0 1.5.145 1.886.69.023-.727.091-3.6.091-3.6.048-1.08-1.445-1.049-2.394-.727.358-1.244 1.093-1.916 2.793-1.746-.413-.173-.852-.561-.852-1.31 0-1.011.821-2.133 1.36-2.465v.005zm0-7.431c.26-.49 1.138-1.455 2.395-1.6.07-.028.142-.053.217-.077-1.133-.26-2.087-.686-2.612-1.57-.524.884-1.478 1.31-2.612 1.57.076.024.149.05.217.076 1.258.146 2.136 1.111 2.395 1.6zm.002-11.264v.001h-.003c-.055-.046-1.29-1.064-1.715-.536-.525.651.947 3.247 1.716 5.147.77-1.9 2.242-4.496 1.717-5.147-.426-.528-1.66.49-1.715.535z" mask="url(#kz-flag-b)"/>
	</g>
</symbol>
<symbol id="like" viewBox="0 0 12 10">
	<path fill="#AAADB9" fill-rule="evenodd" d="M12 4.5c0-.55-.452-.999-1.001-.999h-3.15l.501-2.3V1.05c0-.2-.1-.4-.2-.55L7.598 0 4.3 3.3c-.2.15-.3.401-.3.699v5C4 9.55 4.45 10 4.998 10H9.5c.398 0 .75-.25.898-.6L11.9 5.85c.049-.1.049-.25.049-.35v-1H12c0 .05 0 0 0 0zM0 10h3V4H0v6z"/>
</symbol>
<symbol id="logo-text" viewBox="0 0 879 174">
	<path fill="#FFF" d="M21 11.07H5.67l-1 9.73H0V5h48.52v15.8h-4.66L43 11.07H27.55v59.06l7.1.92v4.86H13.88v-4.86l7.09-.92zm90.22 12.06v11.35c0 11.95-6.18 18.23-18.13 18.23H76.68v17.42l7.09.92v4.86H63v-4.86l7.09-.92V10.77L63 9.86V5h30.09c11.95 0 18.13 6.28 18.13 18.13zM76.68 11.07v35.56h15.7c8.61 0 12.26-3.54 12.26-12.26V23.43c0-8.81-3.65-12.36-12.26-12.36h-15.7zm84.5 43.16h-23.7l-4.76 15.9 7.09.92v4.86H119v-4.86l7.09-.92 18.14-59.36-7.1-.91V5h15.71l19.85 65.13 7 .92v4.86h-20.63v-4.86l7-.92-4.88-15.9zm-22.08-5.57h20.46l-9.93-33.13H149l-9.9 33.13zM227.26 5h20.77v4.86l-7.09.91v59.36l7.09.92v4.86h-13.68V43.49h-29.68v26.64l7.09.92v4.86H191v-4.86l7.09-.92V10.77L191 9.86V5h13.67v32.37h29.68v-26.6l-7.09-.91zm59.68 6.07c-8.71 0-12.36 3.55-12.36 12.26v34.24c0 8.71 3.65 12.26 12.36 12.26h22.08v6.08h-22.79c-12 0-18.23-6.28-18.23-18.13V23.13C268 11.28 274.28 5 286.23 5h22.79v16.1h-5.26l-1-10-15.82-.03zM343 63.13c-11.95 0-18-6.28-18-18.13V31c0-11.85 6.08-18.13 18-18.13h11.35v-7.1l-7.09-.91V0h20.66v4.86l-7 .91v7.1h11.35c11.95 0 18 6.28 18 18.13v14c0 11.85-6.08 18.13-18 18.13h-11.34v7.09l7 .92V76h-20.67v-4.86l7.09-.92v-7.09H343zM331.56 44.8c0 8.71 3.55 12.25 12.16 12.25h10.64V18.96h-10.65c-8.61 0-12.16 3.55-12.16 12.26l.01 13.58zm52.17-13.58c0-8.71-3.54-12.26-12.15-12.26h-10.65v38.09h10.63c8.61 0 12.15-3.54 12.15-12.25l.02-13.58zm74.19 27.57c0 11.85-6.18 18.13-18 18.13h-10.67C417.3 76.88 411 70.64 411 58.79V23.13C411 11.28 417.28 5 429.23 5h10.64c11.85 0 18 6.28 18 18.13l.05 35.66zm-6.59-35.46c0-8.71-3.54-12.25-12.15-12.25H430c-8.71 0-12.36 3.64-12.36 12.25v35.26c0 8.61 3.65 12.26 12.36 12.26h9.22c8.61 0 12.15-3.55 12.15-12.26l-.04-35.26zm74.89-.2v11.35c0 11.95-6.17 18.23-18.13 18.23h-16.41v17.42l7.09.92v4.86H478v-4.86l7.1-.92V10.77l-7.1-.91V5h30.09c11.96 0 18.13 6.28 18.13 18.13zm-34.54-12.06v35.56h15.7c8.61 0 12.26-3.54 12.26-12.26V23.43c0-8.81-3.65-12.36-12.26-12.36h-15.7zm65.99 64.84H544v-4.86l7.09-.92V10.77L544 9.86V5h16.21l22 58.55h.65L604.74 5h16.21v4.86l-7.09.91v59.36l7.09.92v4.86h-13.64V18.16h-.61l-21.78 57.75h-4.86l-21.78-57.75h-.61zm116.48-21.68h-23.71l-4.76 15.9 7.09.92v4.86H632v-4.86l7.1-.92 18.12-59.36-7.09-.91V5h15.7l19.86 65.13 7 .92v4.86h-20.67v-4.86l7-.92-4.87-15.9zm-22.09-5.57h20.47l-9.93-33.13h-.61l-9.93 33.13zM718 11.07h-15.3l-1 9.73H697V5h48.52v15.8h-4.66l-.86-9.73h-15.4v59.06l7.09.92v4.86H710.9v-4.86l7.09-.92zm90.9 47.72c0 11.85-6.18 18.13-18 18.13h-10.67c-12 0-18.23-6.28-18.23-18.13V23.13C762 11.28 768.28 5 780.23 5h10.64c11.85 0 18 6.28 18 18.13l.03 35.66zm-6.59-35.46c0-8.71-3.54-12.25-12.15-12.25h-9.22c-8.71 0-12.36 3.64-12.36 12.25v35.26c0 8.61 3.65 12.26 12.36 12.26h9.22c8.61 0 12.15-3.55 12.15-12.26V23.33zm75.91-.2v11.35c0 11.95-6.18 18.23-18.14 18.23h-16.41v17.42l7.09.92v4.86H830v-4.86l7.09-.92V10.77L830 9.86V5h30.06c12 0 18.16 6.28 18.16 18.13zm-34.55-12.06v35.56h15.7c8.61 0 12.26-3.54 12.26-12.26V23.43c0-8.81-3.65-12.36-12.26-12.36h-15.7zM3 134.5l-3-.38V132h8.82v2.07l-3 .38v11.18h7.26L18.57 132h5v2.07l-3 .38-5 12.43 5.54 12.77 3 .39v2.06h-5l-6-13.93H5.85v11.48l3 .39v2.06H.03v-2.06l3-.39zm33.7 0l-3-.38V132h21.38v2.07l-3 .38v25.2l3 .39v2.06h-8.82v-2.06l3-.39v-25.07h-9.85l-1.85 21c-.38 4.48-2.92 6.76-6.79 6.76H30v-2.58h.47a4.2 4.2 0 0 0 4.34-4.26l1.89-21zm39.18 19.13h-4L66 134.5l-3-.38V132h5.07l5.59 18.88h3.05l4.78-16.38-3-.38V132h8.82v2.07l-3 .38-5.89 19.7c-1.76 5.89-3.36 8.17-7.53 8.17h-.9v-2.58h.89c2.41 0 3.57-1.34 4.43-4.26l.57-1.85zM95 162.1v-2.06l3-.39V134.5l-3-.38V132h19.26v6.84h-2.15l-.38-4.26h-10.88v9.68h7.66c5.07 0 7.74 2.66 7.74 7.69v2.45c0 5-2.67 7.7-7.74 7.7H95zm13.2-2.58c3.66 0 5.2-1.55 5.2-5.2v-2.28c0-3.66-1.54-5.2-5.2-5.2h-7.35v12.66l7.35.02zM163.22 132v2.07l-3 .38v25.2l3 .39v2.06h-5.8v-27.52h-12.6v25.07l3 .39v2.06H139v-2.06l3-.39V134.5l-3-.38V132zm30.3 7.7v4.8c0 5.08-2.62 7.74-7.7 7.74h-7v7.4l3 .39v2.06H173v-2.06l3-.39V134.5l-3-.38V132h12.77c5.13 0 7.75 2.67 7.75 7.7zm-14.66-5.12v15.09h6.66c3.66 0 5.2-1.5 5.2-5.2v-4.64c0-3.74-1.54-5.25-5.2-5.25h-6.66zm41.13 0h-11.18v11.27h8.9v2.45h-8.9v11.2h11.65l.43-4.26H223v6.84h-20v-2.06l3-.39V134.5l-3-.38V132h19.57v6.84h-2.16zm12.69 24.92a6.09 6.09 0 0 0 2.75-4.21l1.81-20.79-3-.38V132h21.41v2.07l-3 .38v25.05h3.66v8.17h-2.28l-.47-5.59h-19.85l-.43 5.59H231v-8.17h1.68zm5.5-4.21a5.58 5.58 0 0 1-2.19 4v.21h13.85v-24.92h-9.89l-1.77 20.71zM290.22 132v2.07l-3 .38v25.2l3 .39v2.06h-5.81v-27.52h-12.6v25.07l3 .39v2.06H266v-2.06l3-.39V134.5l-3-.38V132zm30.2 7.7v4.8c0 5.08-2.62 7.74-7.69 7.74h-7v7.4l3 .39v2.06H300v-2.06l3-.39V134.5l-3-.38V132h12.77c5.03 0 7.65 2.67 7.65 7.7zm-14.66-5.12v15.09h6.67c3.65 0 5.2-1.5 5.2-5.2v-4.64c0-3.74-1.55-5.25-5.2-5.25h-6.67zM335.8 132v24.55h.26L348.7 132h6v2.07l-3 .38v25.2l3 .39v2.06h-5.8v-24.55h-.26L335.9 162.1H330v-2.06l3-.39V134.5l-3-.38V132zm43.6 0h8.82v2.07l-3 .38v25.2l3 .39v2.06h-5.81v-13.76h-12.59v11.31l3 .39v2.06H364v-2.06l3-.39V134.5l-3-.38V132h5.81v13.76h12.59V134.5l-3-.38zm24.4 0v24.55h.26L416.7 132h6v2.07l-3 .38v25.2l3 .39v2.06h-5.8v-24.55h-.26l-12.71 24.55H398v-2.06l3-.39V134.5l-3-.38V132zm35.01 30.1H433v-2.06l3-.39V134.5l-3-.38V132h6.88l9.33 24.85h.3L458.8 132h6.86v2.07l-3 .38v25.2l3 .39v2.06h-5.8v-24.51h-.2l-9.25 24.51h-2.06l-9.25-24.51h-.25zm52.06-9.2h-10.06l-2 6.75 3 .39v2.06H473v-2.06l3-.39 7.69-25.2-3-.38V132h6.67l8.43 27.65 3 .39v2.06h-8.82v-2.06l3-.39-2.1-6.75zm-9.37-2.4h8.69l-4.22-14h-.26l-4.21 14zm29.42-15.92h-6.49l-.43 4.13h-2V132h20.6v6.71h-2l-.39-4.13h-6.54v25.07l3 .39v2.06h-8.81v-2.06l3-.39zm37.07 0h-11.18v11.27h8.9v2.45h-8.9v11.2h11.65l.43-4.26H551v6.84h-20v-2.06l3-.39V134.5l-3-.38V132h19.56v6.84h-2.15zm17.72-.08l-3-.38V132h21.37v2.07l-3 .38v25.2l3 .39v2.06h-8.82v-2.06l3-.39v-25.07h-9.84l-1.85 21c-.39 4.48-2.93 6.76-6.8 6.76H559v-2.58h.47c2.37 0 4.13-1.51 4.35-4.26l1.89-21zm45.28.08h-11.18v11.27h8.9v2.45h-8.9v11.2h11.66l.43-4.26h2.1v6.84h-20v-2.06l3-.39V134.5l-3-.38V132h19.59v6.84h-2.15zm18.82-2.25v24.55h.26l12.63-24.55h6v2.07l-3 .38v25.2l3 .39v2.06h-5.8v-24.55h-.26l-12.7 24.55H624v-2.06l3-.39v-25.15l-3-.38v-2.12h5.81zm9.93-9.33h2.19v1.55c0 2.88-1.29 4.21-4.21 4.21h-2.75c-2.93 0-4.22-1.33-4.22-4.21V123h2.15v1.46c0 1.55.61 2.15 2.15 2.15h2.54c1.59 0 2.15-.51 2.15-2.15V123z"/>
</symbol>
<symbol id="mouse" viewBox="0 0 14 22">
	<g fill-rule="evenodd">
		<rect width="12" height="19.758" x="1" y="1" rx="6"/>
		<ellipse cx="7" cy="6.429" rx="1.273" ry="1.286"/>
	</g>
</symbol>
<symbol id="phone" viewBox="0 0 24 24">
	<path d="M17.25 2h-10C6.561 2 6 2.561 6 3.25v17.5c0 .69.561 1.25 1.25 1.25h10c.69 0 1.25-.56 1.25-1.25V3.25c0-.689-.56-1.25-1.25-1.25zm-5 18.75a1.25 1.25 0 1 1 0-2.5 1.25 1.25 0 0 1 0 2.5zm5-3.75h-10V4.5h10V17z"/>
</symbol>
<symbol id="play" viewBox="0 0 24 24">
	<path fill-rule="evenodd" d="M8 5.143c0-.461.372-.878.944-1.056.571-.177 1.229-.079 1.666.249l9.178 6.855c.298.222.447.515.447.809 0 .29-.149.584-.447.806l-9.178 6.86c-.437.326-1.095.424-1.666.247-.572-.177-.944-.594-.944-1.055V5.143z"/>
</symbol>
<symbol id="quote" viewBox="0 0 45 36">
	<path fill-rule="evenodd" d="M8 36c-2.567-.711-4.623-2.296-6-5-1.325-2.215-2-5.133-2-9 0-4.844 1.718-9.452 5-13 3.59-4.215 7.6-7.104 12-9l3 5v1c-2.379.34-4.405 2.119-6 5a15.154 15.154 0 0 0-3 8c.19 2.274.571 3.83 1 5 1.098 1.26 2.156 1.926 4 2l-1 2-7 8zm25 0c-2.567-.711-4.623-2.296-6-5-1.325-2.215-2-5.133-2-9 0-4.844 1.718-9.452 5-13 3.59-4.215 7.6-7.104 12-9l3 5v1c-2.379.34-4.405 2.119-6 5a15.154 15.154 0 0 0-3 8c.19 2.274.571 3.83 1 5 1.098 1.26 2.156 1.926 4 2l-1 2-7 8z"/>
</symbol>
<symbol id="rotate-screen" viewBox="0 0 89 96">
	<g fill="none" fill-rule="evenodd">
		<g fill-rule="nonzero" transform="rotate(-90 47.619 47.619)">
			<path fill="#3D3F4E" d="M45.956 15.722c.668 0 1.21.541 1.21 1.21v6.045a1.21 1.21 0 0 1-1.21 1.21v2.419c.668 0 1.21.542 1.21 1.21v6.046a1.21 1.21 0 0 1-1.21 1.21v49.003a3 3 0 0 1-3 3H3a3 3 0 0 1-3-3V3a3 3 0 0 1 3-3h39.956a3 3 0 0 1 3 3v12.722z"/>
			<path fill="#262935" d="M4.535 10.884h37.188c1.002 0 1.814.813 1.814 1.814v62.585a1.814 1.814 0 0 1-1.814 1.815H4.535a1.814 1.814 0 0 1-1.814-1.815V12.698c0-1.001.812-1.814 1.814-1.814z"/>
			<rect width="18.141" height="2.419" x="14.512" y="4.837" fill="#262935" rx="1.21"/>
			<rect width="2.419" height="2.419" x="9.675" y="4.837" fill="#262935" rx="1.21"/>
		</g>
		<path fill="#E6CD77" fill-rule="nonzero" d="M87.68 15.722c.668 0 1.209.541 1.209 1.21v6.045a1.21 1.21 0 0 1-1.21 1.21v2.419c.669 0 1.21.542 1.21 1.21v6.046a1.21 1.21 0 0 1-1.21 1.21v49.003a3 3 0 0 1-3 3H44.724a3 3 0 0 1-3-3V3a3 3 0 0 1 3-3H84.68a3 3 0 0 1 3 3v12.722z"/>
		<path fill="#181A22" fill-rule="nonzero" d="M45.814 11h37.188c1.002 0 1.814.812 1.814 1.814V75.4a1.814 1.814 0 0 1-1.814 1.814H45.814A1.814 1.814 0 0 1 44 75.4V12.814c0-1.002.812-1.814 1.814-1.814z"/>
		<path fill="#E6CD77" d="M64.813 39.618v16.568l-.669.814-.668-.814V39.618h-7.578v-1.374H72.39v1.374h-7.578zm-4.2-2.468L64.144 31l3.532 6.15h-1.578l-1.956-3.379-1.97 3.38h-1.56zm-4.715 2.468h1.411v1.226h-1.411v-1.226zm15.082 0h1.411v1.226H70.98v-1.226zm-10.142 1.263h1.363v13.544l-1.363-1.675V40.881zm6.638 0v11.87l-1.363 1.674V40.881h1.363zm-9.008 0h1.581l-4.695 8.167h4.187v1.351H53l5.468-9.518zm11.343 0L75.28 50.4h-6.541v-1.351h4.187l-4.695-8.167h1.58z"/>
		<rect width="18.141" height="2.419" x="56.236" y="4.837" fill="#181A22" fill-rule="nonzero" rx="1.21"/>
		<rect width="2.419" height="2.419" x="51.399" y="4.837" fill="#181A22" fill-rule="nonzero" rx="1.21"/>
		<path fill="#E6CD77" fill-rule="nonzero" d="M29.025 21.086c-10.487.474-18.844 9.126-18.844 19.73H7.96c0-11.831 9.35-21.478 21.066-21.954v-3.456l7.511 4.554-7.511 4.553v-3.427z"/>
	</g>
</symbol>
<symbol id="telegram" viewBox="0 0 24 24">
	<path d="M2.353 11.63l4.609 1.779 1.783 5.93c.115.38.564.52.862.268l2.569-2.165a.747.747 0 0 1 .934-.027l4.633 3.477c.32.24.771.06.851-.34l3.394-16.875c.088-.436-.326-.799-.727-.638L2.348 10.58c-.467.187-.463.87.005 1.05zm6.092-.158l9.306-5.447c.167-.098.339.117.195.244l-7.68 6.785a1.49 1.49 0 0 0-.493.905l-.261 1.843c-.035.246-.398.27-.47.032l-1.006-3.36a.87.87 0 0 1 .41-1.002z"/>
</symbol>
<symbol id="vk" viewBox="0 0 24 24">
	<path d="M21.894 16.837a1.468 1.468 0 0 0-.068-.137c-.347-.657-1.01-1.463-1.989-2.42l-.02-.022-.01-.01-.011-.012h-.01c-.445-.445-.726-.744-.844-.898-.216-.292-.264-.587-.146-.887.083-.226.396-.704.937-1.434.285-.387.51-.697.677-.93 1.2-1.68 1.722-2.753 1.562-3.22l-.062-.11c-.042-.065-.15-.126-.323-.18-.174-.055-.396-.064-.666-.028l-3 .022a.37.37 0 0 0-.208.006l-.135.033-.052.027-.042.033a.473.473 0 0 0-.114.115.762.762 0 0 0-.104.191A18.306 18.306 0 0 1 16.15 9.44a23.53 23.53 0 0 1-.708 1.178 5.635 5.635 0 0 1-.541.733 3.851 3.851 0 0 1-.396.378c-.118.095-.208.135-.27.12a7.317 7.317 0 0 1-.178-.043.716.716 0 0 1-.234-.269 1.248 1.248 0 0 1-.12-.427 4.946 4.946 0 0 1-.036-.443 10 10 0 0 1 .005-.526c.007-.226.01-.38.01-.46 0-.277.006-.579.016-.903l.026-.772c.007-.19.01-.391.01-.603a2.69 2.69 0 0 0-.036-.498 1.767 1.767 0 0 0-.109-.35.583.583 0 0 0-.213-.263 1.17 1.17 0 0 0-.35-.148c-.367-.088-.836-.135-1.405-.142-1.291-.015-2.121.073-2.489.262-.146.08-.278.19-.396.329-.125.16-.142.248-.052.263.417.065.712.222.885.47l.063.132c.049.095.097.263.146.504.048.24.08.507.093.799.035.533.035.99 0 1.369-.034.38-.067.675-.099.887a1.846 1.846 0 0 1-.265.755.184.184 0 0 1-.052.055.746.746 0 0 1-.281.055c-.098 0-.216-.051-.354-.153a2.551 2.551 0 0 1-.432-.422 5.642 5.642 0 0 1-.506-.75c-.187-.321-.381-.7-.583-1.139L7.134 9.1a27.895 27.895 0 0 1-.427-.892c-.18-.39-.34-.769-.48-1.134a.72.72 0 0 0-.249-.35l-.052-.033a.702.702 0 0 0-.167-.093 1.064 1.064 0 0 0-.24-.071l-2.852.022c-.292 0-.49.07-.594.208l-.042.066A.37.37 0 0 0 2 6.998c0 .08.02.179.063.295.416 1.03.869 2.023 1.358 2.98.49.955.915 1.726 1.276 2.31A27.34 27.34 0 0 0 5.8 14.235c.375.518.623.85.744.997.122.146.217.255.287.328l.26.263c.167.175.411.385.734.63.323.244.68.485 1.073.722.392.238.848.431 1.37.58.52.15 1.026.21 1.52.182h1.197c.243-.023.427-.103.552-.241l.041-.055a.747.747 0 0 0 .078-.203c.025-.09.037-.191.037-.3a3.79 3.79 0 0 1 .067-.85c.052-.251.111-.441.178-.569a1.398 1.398 0 0 1 .4-.482.663.663 0 0 1 .084-.038c.166-.058.362-.002.588.17a3.5 3.5 0 0 1 .635.635c.198.252.436.535.714.849.278.314.52.547.729.7l.208.132c.139.088.32.168.542.241.221.073.416.091.582.055l2.666-.044c.264 0 .469-.046.615-.137.145-.091.232-.192.26-.301a.89.89 0 0 0 .005-.373 1.43 1.43 0 0 0-.073-.29z"/>
</symbol>
<symbol id="whatsapp" viewBox="0 0 17 17">
	<path fill-rule="evenodd" d="M12.506 10.113c-.209-.113-1.231-.66-1.423-.738-.192-.077-.332-.118-.481.088-.15.204-.574.663-.702.799-.13.136-.253.148-.462.035-.207-.113-.882-.36-1.665-1.107-.609-.58-1.008-1.285-1.124-1.5-.116-.216-.001-.325.109-.426.099-.09.221-.238.332-.357.11-.118.15-.205.225-.343.076-.137.046-.261-.004-.369-.049-.107-.434-1.158-.594-1.585-.161-.428-.34-.364-.464-.369-.124-.004-.264-.027-.406-.033a.782.782 0 0 0-.575.242c-.202.204-.769.692-.808 1.727-.04 1.035.683 2.064.783 2.208.101.144 1.379 2.387 3.501 3.31 2.124.922 2.135.641 2.525.62.39-.02 1.273-.462 1.468-.946.196-.485.211-.906.162-.995-.05-.09-.19-.148-.397-.261zM8.612 15.1a6.914 6.914 0 0 1-3.804-1.134l-2.656.844.863-2.547A6.788 6.788 0 0 1 1.7 8.24c0-3.783 3.101-6.86 6.913-6.86 3.812 0 6.913 3.077 6.913 6.86 0 3.782-3.1 6.86-6.913 6.86zm0-15.1C4.025 0 .307 3.69.307 8.24c0 1.557.436 3.013 1.192 4.256L0 16.916l4.598-1.46a8.323 8.323 0 0 0 4.014 1.025c4.587 0 8.305-3.69 8.305-8.24C16.917 3.689 13.199 0 8.612 0z"/>
</symbol>
<symbol id="yt" viewBox="0 0 24 24">
	<path d="M17.846 5H6.154C3.86 5 2 6.84 2 9.109v5.782C2 17.161 3.86 19 6.154 19h11.692C20.14 19 22 17.16 22 14.891V9.109C22 6.839 20.14 5 17.846 5zm-2.809 7.281l-5.469 2.58a.22.22 0 0 1-.314-.195V9.344a.22.22 0 0 1 .319-.194l5.469 2.742a.216.216 0 0 1-.005.39z"/>
</symbol>
</svg>
