<svg xmlns="http://www.w3.org/2000/svg" xmlns:xlink="http://www.w3.org/1999/xlink" width="564" height="423"><defs><path id="a" d="M0 0h564v423H0z"/></defs><g fill="none" fill-rule="evenodd"><mask id="b" fill="#fff"><use xlink:href="#a"/></mask><use fill="#2B2D3C" xlink:href="#a"/><g fill="#FFF" mask="url(#b)" opacity=".1"><path d="M346.506 170.277c-.554-.277-1.108-.277-1.662-.277-1.109 0-2.217.553-3.048 1.107l-26.046 26.006V178.3c0-4.703-3.602-8.3-8.313-8.3h-83.125c-4.71 0-8.312 3.597-8.312 8.3v66.4c0 4.703 3.602 8.3 8.313 8.3h83.125c4.71 0 8.312-3.597 8.312-8.3v-19.09l26.046 26.007c.831.83 1.94 1.106 3.048 1.106.554 0 1.108 0 1.662-.276 1.663-.554 2.494-2.214 2.494-3.874v-74.7c0-1.383-1.108-3.043-2.494-3.596z"/></g></g></svg>
